<?xml version="1.0" encoding="UTF-8" standalone="no"?>
<svg
   xmlns:dc="http://purl.org/dc/elements/1.1/"
   xmlns:cc="http://creativecommons.org/ns#"
   xmlns:rdf="http://www.w3.org/1999/02/22-rdf-syntax-ns#"
   xmlns:svg="http://www.w3.org/2000/svg"
   xmlns="http://www.w3.org/2000/svg"
   xmlns:sodipodi="http://sodipodi.sourceforge.net/DTD/sodipodi-0.dtd"
   xmlns:inkscape="http://www.inkscape.org/namespaces/inkscape"
   version="1.1"
   x="0px"
   y="0px"
   viewBox="0 0 98 98"
   enable-background="new 0 0 91 91"
   xml:space="preserve"
   id="svg28"
   sodipodi:docname="app_icon.svg"
   width="98"
   height="98"
   inkscape:version="0.92.4 (5da689c313, 2019-01-14)"><metadata
     id="metadata34"><rdf:RDF><cc:Work
         rdf:about=""><dc:format>image/svg+xml</dc:format><dc:type
           rdf:resource="http://purl.org/dc/dcmitype/StillImage" /><dc:title></dc:title></cc:Work></rdf:RDF></metadata><defs
     id="defs32" /><sodipodi:namedview
     pagecolor="#ffffff"
     bordercolor="#666666"
     borderopacity="1"
     objecttolerance="10"
     gridtolerance="10"
     guidetolerance="10"
     inkscape:pageopacity="0"
     inkscape:pageshadow="2"
     inkscape:window-width="1920"
     inkscape:window-height="1017"
     id="namedview30"
     showgrid="false"
     inkscape:zoom="5.8682092"
     inkscape:cx="69.215155"
     inkscape:cy="36.186514"
     inkscape:window-x="-8"
     inkscape:window-y="-8"
     inkscape:window-maximized="1"
     inkscape:current-layer="svg28" /><g
     id="g22"
     transform="translate(3.3340483,1.769)"
     style="fill:#e6e6e6"><path
       d="m 33.181,46.809 c 1.322,1.04 3.855,2.262 6.849,2.262 2.061,0 4.34,-0.58 6.592,-2.195 1.115,-0.799 1.371,-2.349 0.571,-3.461 -0.797,-1.113 -2.347,-1.369 -3.461,-0.569 -3.769,2.703 -7.116,0.343 -7.501,0.052 -1.078,-0.832 -2.624,-0.642 -3.468,0.43 -0.846,1.076 -0.659,2.635 0.418,3.481 z"
       id="path2"
       inkscape:connector-curvature="0"
       style="fill:#e6e6e6" /><circle
       cx="34.355999"
       cy="36.056"
       r="2.8369999"
       id="circle4"
       style="fill:#e6e6e6" /><path
       d="m 48.373,36.056 c 0,-1.563 -1.274,-2.835 -2.836,-2.835 -1.564,0 -2.838,1.272 -2.838,2.835 0,1.565 1.274,2.838 2.838,2.838 1.562,0 2.836,-1.272 2.836,-2.838 z"
       id="path6"
       inkscape:connector-curvature="0"
       style="fill:#e6e6e6" /><path
       d="m 65.269,43.323 c 1.324,1.04 3.857,2.261 6.852,2.261 2.061,0 4.342,-0.58 6.595,-2.196 1.114,-0.797 1.368,-2.348 0.569,-3.46 -0.8,-1.114 -2.348,-1.369 -3.46,-0.57 -3.767,2.7 -7.12,0.344 -7.506,0.054 -1.075,-0.832 -2.624,-0.642 -3.468,0.43 -0.846,1.077 -0.659,2.635 0.418,3.481 z"
       id="path8"
       inkscape:connector-curvature="0"
       style="fill:#e6e6e6" /><path
       d="m 69.281,32.57 c 0,-1.565 -1.273,-2.838 -2.838,-2.838 -1.565,0 -2.836,1.273 -2.836,2.838 0,1.564 1.271,2.837 2.836,2.837 1.565,0 2.838,-1.272 2.838,-2.837 z"
       id="path10"
       inkscape:connector-curvature="0"
       style="fill:#e6e6e6" /><path
       d="m 80.463,32.57 c 0,-1.565 -1.273,-2.838 -2.838,-2.838 -1.563,0 -2.837,1.273 -2.837,2.838 0,1.564 1.274,2.837 2.837,2.837 1.564,0.001 2.838,-1.272 2.838,-2.837 z"
       id="path12"
       inkscape:connector-curvature="0"
       style="fill:#e6e6e6" /><path
       d="m 10.352,65.296 c 0.164,1.53 1.114,2.739 2.542,3.234 0.495,0.173 1.04,0.248 1.615,0.248 0.232,0 0.47,-0.013 0.71,-0.037 -0.581,1.081 -1.128,2.167 -1.653,3.222 l -0.086,0.17 c -0.61,1.227 -0.113,2.715 1.114,3.327 0.355,0.177 0.732,0.261 1.104,0.261 0.913,0 1.789,-0.504 2.223,-1.373 l 0.084,-0.17 c 1.908,-3.829 3.884,-7.756 6.98,-9.907 1.563,0.836 3.234,1.507 5.006,1.968 0.208,0.055 0.418,0.081 0.625,0.081 1.103,0 2.11,-0.741 2.4,-1.857 0.343,-1.326 -0.452,-2.681 -1.778,-3.024 -7.854,-2.042 -13.341,-9.145 -13.341,-17.273 0,-9.838 8.006,-17.842 17.843,-17.842 9.841,0 17.845,8.004 17.845,17.842 0,6.147 -3.167,11.803 -8.254,15.048 -0.016,0.009 -0.032,0.022 -0.048,0.033 -0.727,0.46 -1.494,0.874 -2.297,1.23 -1.251,0.557 -1.814,2.022 -1.257,3.275 0.553,1.25 2.021,1.814 3.272,1.257 0.523,-0.231 1.032,-0.482 1.528,-0.75 3.337,2.136 6.511,6.086 8.658,10.864 0.414,0.92 1.318,1.465 2.265,1.465 0.34,0 0.685,-0.07 1.016,-0.218 1.247,-0.562 1.807,-2.03 1.245,-3.28 -2.188,-4.871 -5.377,-9.065 -8.882,-11.838 0.979,-0.865 1.876,-1.814 2.689,-2.827 2.511,2.03 5.426,3.51 8.564,4.327 0.208,0.055 0.418,0.081 0.624,0.081 1.104,0 2.109,-0.741 2.4,-1.857 0.345,-1.326 -0.45,-2.681 -1.778,-3.025 -2.639,-0.687 -5.055,-1.997 -7.114,-3.773 1.498,-3.062 2.332,-6.47 2.332,-10.012 0,-5.357 -1.872,-10.279 -4.975,-14.175 3.361,-4.498 8.56,-7.154 14.256,-7.154 9.841,0 17.845,8.004 17.845,17.843 0,6.146 -3.167,11.803 -8.254,15.047 -0.017,0.01 -0.03,0.023 -0.047,0.032 -0.729,0.462 -1.496,0.874 -2.299,1.231 -1.252,0.557 -1.815,2.022 -1.258,3.276 0.41,0.922 1.318,1.472 2.267,1.472 0.335,0 0.679,-0.069 1.006,-0.215 0.502,-0.224 0.993,-0.464 1.474,-0.72 3.08,2.287 5.206,7.034 6.943,10.945 l 0.513,1.146 c 0.412,0.92 1.316,1.465 2.264,1.465 0.339,0 0.684,-0.07 1.015,-0.218 1.25,-0.562 1.809,-2.03 1.246,-3.28 l -0.503,-1.128 c -1.769,-3.978 -3.894,-8.696 -7.255,-11.845 4.901,-4.265 7.851,-10.508 7.851,-17.21 0,-12.575 -10.23,-22.804 -22.807,-22.804 -7.035,0 -13.501,3.146 -17.8,8.542 -3.914,-3.156 -8.88,-5.056 -14.288,-5.056 -12.574,0 -22.805,10.23 -22.805,22.804 0,3.585 0.852,7.004 2.36,10.066 -2.153,2.415 -5.268,8.079 -4.945,11.066 z m 7.775,-6.666 c 0.753,0.918 1.575,1.776 2.465,2.568 -0.878,0.755 -3.441,2.051 -5.071,2.488 0.491,-1.445 1.646,-3.628 2.606,-5.056 z"
       id="path14"
       inkscape:connector-curvature="0"
       style="fill:#e6e6e6" /><path
       d="m 8.22,51.559 c 0.477,0.44 1.08,0.658 1.682,0.658 0.668,0 1.334,-0.269 1.823,-0.799 0.929,-1.007 0.866,-2.576 -0.139,-3.504 L 8.245,44.832 C 7.238,43.904 5.671,43.965 4.741,44.973 3.812,45.979 3.875,47.549 4.88,48.478 Z"
       id="path16"
       inkscape:connector-curvature="0"
       style="fill:#e6e6e6" /><path
       d="m 2.439,57.08 c 0.922,0.103 3.595,0.43 4.845,0.721 0.189,0.044 0.379,0.066 0.565,0.066 1.126,0 2.148,-0.775 2.415,-1.92 C 10.573,54.613 9.743,53.279 8.409,52.969 6.62,52.552 3.129,52.167 2.98,52.15 1.622,51.995 0.396,52.982 0.243,54.342 c -0.15,1.363 0.831,2.589 2.196,2.738 z"
       id="path18"
       inkscape:connector-curvature="0"
       style="fill:#e6e6e6" /><path
       d="M 7.009,64.933 C 7.566,64.606 8.093,64.297 8.599,64.073 9.85,63.516 10.412,62.051 9.855,60.799 9.3,59.547 7.833,58.986 6.581,59.54 5.822,59.878 5.152,60.271 4.5,60.653 3.896,61.007 3.325,61.341 2.78,61.57 c -1.264,0.528 -1.859,1.981 -1.333,3.245 0.398,0.95 1.32,1.523 2.291,1.523 0.317,0 0.642,-0.062 0.953,-0.191 0.857,-0.357 1.6,-0.793 2.318,-1.214 z"
       id="path20"
       inkscape:connector-curvature="0"
       style="fill:#e6e6e6" /></g></svg>