<?xml version="1.0" encoding="UTF-8" standalone="no"?>
<svg
   xmlns:dc="http://purl.org/dc/elements/1.1/"
   xmlns:cc="http://creativecommons.org/ns#"
   xmlns:rdf="http://www.w3.org/1999/02/22-rdf-syntax-ns#"
   xmlns:svg="http://www.w3.org/2000/svg"
   xmlns="http://www.w3.org/2000/svg"
   xmlns:sodipodi="http://sodipodi.sourceforge.net/DTD/sodipodi-0.dtd"
   xmlns:inkscape="http://www.inkscape.org/namespaces/inkscape"
   width="180"
   height="180"
   viewBox="0 0 180 180"
   version="1.1"
   id="svg10"
   sodipodi:docname="icon_pig.svg"
   style="fill:none"
   inkscape:version="0.92.4 (5da689c313, 2019-01-14)">
  <metadata
     id="metadata16">
    <rdf:RDF>
      <cc:Work
         rdf:about="">
        <dc:format>image/svg+xml</dc:format>
        <dc:type
           rdf:resource="http://purl.org/dc/dcmitype/StillImage" />
        <dc:title></dc:title>
      </cc:Work>
    </rdf:RDF>
  </metadata>
  <defs
     id="defs14" />
  <sodipodi:namedview
     pagecolor="#ffffff"
     bordercolor="#666666"
     borderopacity="1"
     objecttolerance="10"
     gridtolerance="10"
     guidetolerance="10"
     inkscape:pageopacity="0"
     inkscape:pageshadow="2"
     inkscape:window-width="1920"
     inkscape:window-height="1017"
     id="namedview12"
     showgrid="false"
     inkscape:zoom="1.6494253"
     inkscape:cx="10.609756"
     inkscape:cy="65"
     inkscape:window-x="-8"
     inkscape:window-y="-8"
     inkscape:window-maximized="1"
     inkscape:current-layer="svg10" />
  <g
     id="g22"
     transform="translate(3.337,25)">
    <path
       style="clip-rule:evenodd;fill:#ffffff;fill-rule:evenodd"
       id="path2"
       d="M 3.61096,50.559 C 1.61668,50.559 0,52.1756 0,54.1699 v 28.8877 c 0,1.9942 1.61668,3.6109 3.61096,3.6109 l 8.84054,-0.0119 c 4.9387,9.7914 13.1523,18.2904 23.6553,24.5924 l 0.0028,15.14 c 0,1.994 1.6166,3.611 3.6109,3.611 h 21.6658 c 1.9942,0 3.6109,-1.617 3.6109,-3.611 l 0.0134,-4.762 c 4.713,0.763 9.5403,1.151 14.4304,1.151 4.8963,0 9.7296,-0.389 14.4481,-1.154 l -0.0042,4.765 c 0,1.994 1.6166,3.611 3.6109,3.611 h 21.6662 c 1.994,0 3.611,-1.617 3.611,-3.611 l 0.033,-15.159 c 17.948,-10.776 28.854,-27.7117 28.854,-46.2272 0,-32.1206 -32.496,-57.77531 -72.219,-57.77531 -9.3367,0 -18.4309,1.41567 -26.9078,4.13431 L 34.3564,0.520164 C 31.9496,-0.923911 28.8876,0.809757 28.8876,3.61653 L 28.8736,23.7244 C 19.5187,31.0569 12.7838,40.3072 9.49552,50.5456 Z m 12.09154,4.5101 c 2.6183,-10.1832 9.2557,-19.4863 18.9459,-26.6665 0.9191,-0.681 1.4612,-1.7573 1.4612,-2.9013 l 0.0168,-15.497 14.0446,8.4267 c 0.9147,0.5489 2.0253,0.6652 3.0339,0.3178 8.1912,-2.8217 17.0772,-4.2994 26.2361,-4.2994 36.059,0 64.997,22.8457 64.997,50.5534 0,16.3613 -10.133,31.5244 -27.044,41.0202 -1.139,0.639 -1.843,1.843 -1.843,3.149 v 13.606 h -14.444 v -5.506 c 0,-2.3 -2.1211,-4.013 -4.3695,-3.53 -5.5862,1.199 -11.3877,1.814 -17.2965,1.814 -5.9088,0 -11.7103,-0.615 -17.2965,-1.814 -2.2483,-0.483 -4.3692,1.23 -4.3692,3.53 v 5.506 H 43.3315 v -13.606 c 0,-1.306 -0.7047,-2.51 -1.843,-3.149 C 30.6305,99.9264 22.4142,91.369 18.0325,81.5821 17.4509,80.2829 16.1603,79.4466 14.7368,79.4466 H 7.22191 V 57.7809 h 4.98339 c 1.6479,0 3.0868,-1.1157 3.4972,-2.7118 z"
       inkscape:connector-curvature="0" />
    <path
       style="clip-rule:evenodd;fill:#ffffff;fill-rule:evenodd"
       id="path4"
       d="m 158.882,78.0235 c 7.977,0 14.444,-6.4667 14.444,-14.4439 0,-4.0856 -1.71,-7.9054 -4.654,-10.6203 -1.467,-1.3519 -3.751,-1.2594 -5.103,0.2067 -1.352,1.4662 -1.259,3.7506 0.207,5.1025 1.476,1.3616 2.328,3.2638 2.328,5.3111 0,3.9886 -3.233,7.222 -7.222,7.222 -3.988,0 -7.222,-3.2334 -7.222,-7.222 0,-1.9942 -1.617,-3.6109 -3.611,-3.6109 -1.994,0 -3.611,1.6167 -3.611,3.6109 0,7.9772 6.467,14.4439 14.444,14.4439 z"
       inkscape:connector-curvature="0" />
    <path
       style="clip-rule:evenodd;fill:#ffffff;fill-rule:evenodd"
       id="path6"
       d="m 117.675,43.0172 c 1.818,0.8208 3.957,0.0128 4.778,-1.8047 0.82,-1.8175 0.012,-3.9563 -1.805,-4.7772 L 97.0367,25.7721 c -1.8175,-0.8208 -3.9563,-0.0128 -4.7772,1.8047 -0.8208,1.8175 -0.0128,3.9563 1.8047,4.7771 z"
       inkscape:connector-curvature="0" />
    <path
       style="fill:#ffffff"
       id="path8"
       d="m 36.1095,57.7805 c 3.9886,0 7.2219,-3.2334 7.2219,-7.2219 0,-3.9886 -3.2333,-7.2219 -7.2219,-7.2219 -3.9885,0 -7.2219,3.2333 -7.2219,7.2219 0,3.9885 3.2334,7.2219 7.2219,7.2219 z"
       inkscape:connector-curvature="0" />
  </g>
</svg>
