<svg width="110" height="108" viewBox="0 0 110 108" fill="none" xmlns="http://www.w3.org/2000/svg">
<g filter="url(#filter0_d)">
<path d="M73.44 0C66.6953 0 61.2236 5.46806 61.2236 12.2164C61.2236 18.9611 66.6953 24.4328 73.44 24.4328C80.1847 24.4328 85.6564 18.9611 85.6564 12.2164C85.6564 5.46806 80.1847 0 73.44 0Z" fill="#323232"/>
<path d="M20.5015 12.2164C20.5015 18.9611 25.9733 24.4328 32.7179 24.4328C39.4626 24.4328 44.9343 18.9611 44.9343 12.2164C44.9343 5.46806 39.4626 0 32.7179 0C25.9745 0 20.5015 5.46806 20.5015 12.2164Z" fill="#323232"/>
<path d="M101.945 27.8045C108.38 16.9956 103.422 10.7248 101.945 8.14464C100.467 5.56444 96.74 5.65595 93.7999 8.14464C93.7999 8.14464 96.6443 18.7433 93.7999 24.4327C91.7885 28.4558 89.7283 32.5774 85.6564 32.5774C81.5845 32.5774 68.3235 26.2029 61.2236 32.5774C57.8814 35.5782 55.5161 42.5631 55.5161 42.5631C55.5161 42.5631 50.3508 35.2582 45.5317 32.5774C36.9895 27.8256 24.9814 34.2059 20.5015 32.5774C16.0216 30.949 11.498 14.5717 11.498 14.5717C7.67208 13.8368 5.98912 14.4387 4.21341 18.2134C2.13207 19.4223 15.9166 37.8366 17.7003 45.1835C19.484 52.5305 14.4621 59.8413 12.3569 69.2266C9.82321 80.5217 11.4312 97.9116 12.3569 97.7311C15.3985 100.747 17.1728 100.765 20.5015 97.7311C20.5015 97.7311 18.8731 72.0767 20.5015 69.2266C22.13 66.3765 28.6462 69.2266 28.6462 69.2266C28.6462 69.2266 34.6072 73.4381 36.7921 77.37C40.6543 84.3205 36.7921 97.7311 36.7921 97.7311C40.0946 100.248 44.3418 99.5635 44.9367 97.7311C45.5317 95.8986 47.5816 77.5741 44.9367 73.9983C42.2919 70.4226 37.8916 66.9507 37.8916 66.9507C39.0257 67.7953 43.3776 43.5269 43.4378 42.0011C43.498 40.4754 51.3284 49.8905 51.3284 49.8905L44.9343 61.0819C46.2488 65.3213 47.8245 66.1526 52.0051 65.1231L61.2236 48.9938C55.2564 68.9212 56.2745 79.4408 61.2236 97.7311C64.4036 100.262 66.1867 100.435 69.3671 97.7311C68.0106 97.91 64.6483 72.4037 69.3671 69.2266C74.0858 66.0495 77.5117 69.2266 77.5117 69.2266C77.5117 69.2266 82.828 73.7314 84.8416 77.5741C88.4982 84.5523 85.6564 97.7311 85.6564 97.7311C88.979 100.749 90.7503 100.503 93.7999 97.7311C94.9792 99.3066 96.582 78.4747 93.7999 73.9983C91.0177 69.5219 87.4046 68.0334 85.6564 65.8536C83.9082 63.6739 82.3984 48.9938 85.6564 44.0938C88.9144 39.1938 95.5087 38.6133 101.945 27.8045Z" fill="#323232"/>
</g>
<defs>
<filter id="filter0_d" x="0" y="0" width="109.162" height="108" filterUnits="userSpaceOnUse" color-interpolation-filters="sRGB">
<feFlood flood-opacity="0" result="BackgroundImageFix"/>
<feColorMatrix in="SourceAlpha" type="matrix" values="0 0 0 0 0 0 0 0 0 0 0 0 0 0 0 0 0 0 127 0"/>
<feOffset dy="4"/>
<feGaussianBlur stdDeviation="2"/>
<feColorMatrix type="matrix" values="0 0 0 0 0 0 0 0 0 0 0 0 0 0 0 0 0 0 0.25 0"/>
<feBlend mode="normal" in2="BackgroundImageFix" result="effect1_dropShadow"/>
<feBlend mode="normal" in="SourceGraphic" in2="effect1_dropShadow" result="shape"/>
</filter>
</defs>
</svg>
