<?xml version="1.0" encoding="UTF-8" standalone="no"?>
<svg
   xmlns:dc="http://purl.org/dc/elements/1.1/"
   xmlns:cc="http://creativecommons.org/ns#"
   xmlns:rdf="http://www.w3.org/1999/02/22-rdf-syntax-ns#"
   xmlns:svg="http://www.w3.org/2000/svg"
   xmlns="http://www.w3.org/2000/svg"
   xmlns:sodipodi="http://sodipodi.sourceforge.net/DTD/sodipodi-0.dtd"
   xmlns:inkscape="http://www.inkscape.org/namespaces/inkscape"
   id="b32a285a-6b04-4396-8e15-f52ff515c3cb"
   data-name="Layer 1"
   width="900"
   height="1550"
   viewBox="0 0 900.00002 1550"
   version="1.1"
   sodipodi:docname="login_background.svg"
   inkscape:version="0.92.4 (5da689c313, 2019-01-14)">
  <metadata
     id="metadata141">
    <rdf:RDF>
      <cc:Work
         rdf:about="">
        <dc:format>image/svg+xml</dc:format>
        <dc:type
           rdf:resource="http://purl.org/dc/dcmitype/StillImage" />
        <dc:title>good team</dc:title>
      </cc:Work>
    </rdf:RDF>
  </metadata>
  <defs
     id="defs139" />
  <sodipodi:namedview
     pagecolor="#ffffff"
     bordercolor="#666666"
     borderopacity="1"
     objecttolerance="10"
     gridtolerance="10"
     guidetolerance="10"
     inkscape:pageopacity="0"
     inkscape:pageshadow="2"
     inkscape:window-width="1920"
     inkscape:window-height="1017"
     id="namedview137"
     showgrid="false"
     inkscape:zoom="0.72743842"
     inkscape:cx="789.73225"
     inkscape:cy="888.49611"
     inkscape:window-x="-8"
     inkscape:window-y="-8"
     inkscape:window-maximized="1"
     inkscape:current-layer="b32a285a-6b04-4396-8e15-f52ff515c3cb"
     fit-margin-top="0"
     fit-margin-left="0"
     fit-margin-right="0"
     fit-margin-bottom="0" />
  <title
     id="title2">good team</title>
  <rect
     style="fill:#ffffff;fill-opacity:1;stroke:none;stroke-width:4.22527742;stroke-miterlimit:4;stroke-dasharray:none;stroke-opacity:1"
     id="rect4849"
     width="968.38123"
     height="1683.9485"
     x="-29.958639"
     y="-76.640015" />
  <ellipse
     style="fill:#2f2e41"
     cx="-658.67334"
     cy="491.90622"
     rx="39.5"
     ry="12.40027"
     transform="rotate(-69.08217)"
     id="ellipse6" />
  <path
     d="M 901.60073,578.45344 C 917.26643,695.04233 895.93449,811.75809 787.43202,857.20693 678.92955,902.65577 554.12736,851.54069 508.67853,743.03822 463.2297,634.53575 570.46326,569.61422 622.84724,464.28473 729.2235,250.39196 852.95127,216.3892 901.60073,578.45344 Z"
     id="path8"
     inkscape:connector-curvature="0"
     style="fill:#f2f2f2" />
  <path
     style="fill:none;stroke:#ff6584;stroke-width:4;stroke-linecap:butt;stroke-linejoin:miter;stroke-miterlimit:4;stroke-dasharray:none;stroke-opacity:1"
     d="M 5.8323022,715.98079 C 84.86109,732.25295 199.39468,781.39627 363.54683,721.81309 628.49496,606.09576 760.86839,631.55572 902.06274,642.10496"
     id="path4847"
     inkscape:connector-curvature="0"
     sodipodi:nodetypes="ccc" />
  <ellipse
     cx="689.53394"
     cy="973.95288"
     rx="170"
     ry="23.127211"
     id="ellipse10"
     style="fill:#3f3d56" />
  <rect
     x="-1060.1005"
     y="313.60449"
     width="24"
     height="43"
     transform="rotate(-105.45227)"
     id="rect12"
     style="fill:#2f2e41" />
  <ellipse
     cx="309.10455"
     cy="1043.1005"
     rx="7.5"
     ry="20"
     transform="rotate(-15.45227)"
     id="ellipse14"
     style="fill:#2f2e41" />
  <ellipse
     cx="-732.71527"
     cy="802.53699"
     rx="39.5"
     ry="12.40027"
     transform="rotate(-82.28111)"
     id="ellipse16"
     style="fill:#2f2e41" />
  <circle
     cx="689.11877"
     cy="907.8158"
     r="79"
     id="circle18"
     style="fill:#2f2e41" />
  <rect
     x="-1046.6064"
     y="317.33459"
     width="24"
     height="43"
     transform="rotate(-105.45227)"
     id="rect20"
     style="fill:#2f2e41" />
  <ellipse
     cx="312.83466"
     cy="1029.6064"
     rx="7.5"
     ry="20"
     transform="rotate(-15.45227)"
     id="ellipse22"
     style="fill:#2f2e41" />
  <circle
     cx="709.86298"
     cy="862.55939"
     r="27"
     id="circle24"
     style="fill:#ffffff" />
  <circle
     cx="718.49731"
     cy="850.63232"
     r="9"
     id="circle26"
     style="fill:#3f3d56" />
  <path
     d="m 780.34851,962.104 c 29.23451,-1.4631 51.62459,-28.80777 50.00965,-61.07605 -1.61494,-32.26828 -26.62336,-57.24079 -55.85786,-55.77768 -29.2345,1.46311 -33.822,24.41244 -32.20709,56.68072 1.61491,32.26828 8.8208,61.63611 38.0553,60.17301 z"
     id="path28"
     inkscape:connector-curvature="0"
     style="fill:#00bfa6" />
  <path
     d="m 656.8317,874.39038 a 18,18 0 0 1 -2.90424,-35.88266 c 9.90873,-0.802 12.611,7.06452 13.413,16.97325 0.802,9.90873 -0.60004,18.10742 -10.50876,18.90941 z"
     id="path30"
     inkscape:connector-curvature="0"
     style="fill:#ffffff" />
  <circle
     style="fill:#00bfa6"
     cx="240.30832"
     cy="756.13232"
     r="13.68536"
     id="circle34" />
  <circle
     cx="352.974"
     cy="780.05414"
     r="13.68536"
     id="circle36"
     style="fill:#00bfa6" />
  <circle
     cx="513.46558"
     cy="689.16864"
     r="13.68536"
     id="circle38"
     style="fill:#00bfa6" />
  <circle
     cx="683.34784"
     cy="648.93146"
     r="13.68536"
     id="circle40"
     style="fill:#00bfa6" />
  <circle
     cx="699.02692"
     cy="1107.301"
     r="13.68536"
     id="circle42"
     style="fill:#00bfa6" />
  <ellipse
     style="fill:#3f3d56"
     cx="187.4969"
     cy="1190.5433"
     rx="170"
     ry="23.127211"
     id="ellipse46" />
  <circle
     style="fill:#2f2e41"
     cx="178.30145"
     cy="1077.5433"
     r="79"
     id="circle48" />
  <rect
     style="fill:#2f2e41"
     x="142.30145"
     y="1139.5433"
     width="24"
     height="43"
     id="rect50" />
  <rect
     style="fill:#2f2e41"
     x="190.30145"
     y="1139.5433"
     width="24"
     height="43"
     id="rect52" />
  <ellipse
     style="fill:#2f2e41"
     cx="162.30145"
     cy="1183.0433"
     rx="20"
     ry="7.5"
     id="ellipse54" />
  <ellipse
     style="fill:#2f2e41"
     cx="210.30145"
     cy="1182.0433"
     rx="20"
     ry="7.5"
     id="ellipse56" />
  <circle
     style="fill:#ffffff"
     cx="180.30145"
     cy="1057.5433"
     r="27"
     id="circle58" />
  <circle
     style="fill:#3f3d56"
     cx="180.30145"
     cy="1057.5433"
     r="9"
     id="circle60" />
  <path
     style="fill:#00bfa6"
     inkscape:connector-curvature="0"
     d="m 101.66883,1004.0756 c -6.378893,-28.5675 14.01184,-57.43385 45.54399,-64.4747 31.53215,-7.04085 62.2651,10.41 68.644,38.9776 6.3789,28.5676 -14.51861,39.1038 -46.05075,46.1446 -31.53214,7.0409 -61.7584,7.9201 -68.13724,-20.6475 z"
     id="path62" />
  <circle
     style="fill:#2f2e41"
     cx="151.30145"
     cy="850.5434"
     r="79"
     id="circle64" />
  <rect
     style="fill:#2f2e41"
     x="115.30145"
     y="912.5434"
     width="24"
     height="43"
     id="rect66" />
  <rect
     style="fill:#2f2e41"
     x="163.30145"
     y="912.5434"
     width="24"
     height="43"
     id="rect68" />
  <ellipse
     style="fill:#2f2e41"
     cx="135.30145"
     cy="956.0434"
     rx="20"
     ry="7.5"
     id="ellipse70" />
  <ellipse
     style="fill:#2f2e41"
     cx="183.30145"
     cy="955.0434"
     rx="20"
     ry="7.5"
     id="ellipse72" />
  <circle
     style="fill:#ffffff"
     cx="153.30145"
     cy="830.5434"
     r="27"
     id="circle74" />
  <circle
     style="fill:#3f3d56"
     cx="153.30145"
     cy="830.5434"
     r="9"
     id="circle76" />
  <path
     style="fill:#00bfa6"
     inkscape:connector-curvature="0"
     d="m 74.668827,777.07566 c -6.37889,-28.56758 14.01185,-57.43391 45.543993,-64.47476 31.53215,-7.04085 62.2651,10.41 68.644,38.97759 6.3789,28.56759 -14.51861,39.1038 -46.05075,46.14465 -31.53214,7.04085 -61.758393,7.9201 -68.137243,-20.64748 z"
     id="path78" />
  <ellipse
     style="fill:#2f2e41"
     cx="-708.66321"
     cy="405.08328"
     rx="12.40027"
     ry="39.5"
     transform="rotate(-64.62574)"
     id="ellipse80" />
  <path
     style="fill:#ffffff"
     inkscape:connector-curvature="0"
     d="m 112.4969,879.04338 c 0,7.732 19.90861,23 42,23 22.09139,0 42.80455,-21.768 42.80455,-29.5 0,-7.732 -20.71316,1.5 -42.80455,1.5 -22.09139,0 -42,-2.73198 -42,5 z"
     id="path82" />
  <rect
     x="609.0083"
     y="744.22614"
     width="126.12903"
     height="64.161293"
     id="rect84"
     style="fill:#00bfa6" />
  <rect
     x="196.45801"
     y="420.82193"
     width="36"
     height="36"
     id="rect88"
     style="fill:#ff6584" />
  <circle
     cx="737.90906"
     cy="526.4588"
     r="79"
     id="circle92"
     style="fill:#2f2e41" />
  <rect
     x="-668.32855"
     y="-754.47748"
     width="24.000072"
     height="43.00013"
     transform="rotate(169.73917)"
     id="rect94"
     style="fill:#2f2e41;stroke-width:1.00000298" />
  <rect
     x="-620.32727"
     y="-754.48499"
     width="24"
     height="43"
     transform="rotate(169.73894)"
     id="rect96"
     style="fill:#2f2e41" />
  <ellipse
     cx="143.00421"
     cy="958.96393"
     rx="20"
     ry="7.5"
     transform="rotate(-40.26106)"
     id="ellipse98"
     style="fill:#2f2e41" />
  <ellipse
     cx="183.7074"
     cy="982.46399"
     rx="20"
     ry="7.5"
     transform="rotate(-40.26106)"
     id="ellipse100"
     style="fill:#2f2e41" />
  <circle
     cx="732.37842"
     cy="507.13489"
     r="27"
     id="circle102"
     style="fill:#ffffff" />
  <circle
     cx="721.28149"
     cy="497.45685"
     r="9"
     id="circle104"
     style="fill:#3f3d56" />
  <path
     d="m 800.22902,440.51519 c 1.188,-29.247 -24.01866,-54.01935 -56.30069,-55.33066 -32.28203,-1.31131 -59.41488,21.335 -60.60291,50.582 -1.18803,29.247 21.2521,35.89214 53.53414,37.20345 32.28204,1.31131 62.18143,-3.20781 63.36946,-32.45479 z"
     id="path106"
     inkscape:connector-curvature="0"
     style="fill:#00bfa6" />
  <ellipse
     cx="-350.55475"
     cy="762.56134"
     rx="12.40027"
     ry="39.5"
     transform="rotate(-77.0899)"
     id="ellipse108"
     style="fill:#2f2e41" />
  <ellipse
     cx="-341.04446"
     cy="919.47705"
     rx="12.40027"
     ry="39.5"
     transform="rotate(-77.0899)"
     id="ellipse110"
     style="fill:#2f2e41" />
  <path
     d="m 759.60644,557.59164 a 18.000001,18.000001 0 1 1 -35.42423,6.41281 c -1.77085,-9.78213 5.79238,-13.24363 15.57451,-15.01448 9.78213,-1.77085 18.07887,-1.18046 19.84972,8.60167 z"
     id="path112"
     inkscape:connector-curvature="0"
     style="fill:#ffffff" />
  <ellipse
     cx="-755.29907"
     cy="775.67517"
     rx="39.5"
     ry="12.40027"
     transform="rotate(-82.28111)"
     id="ellipse118"
     style="fill:#2f2e41" />
  <circle
     style="fill:#00bfa6"
     cx="86.308319"
     cy="1167.1323"
     r="13.68536"
     id="circle120" />
  <rect
     style="fill:#ff6584"
     x="301.59406"
     y="1153.8563"
     width="36"
     height="36"
     id="rect122" />
  <circle
     style="fill:#00bfa6"
     cx="274.30829"
     cy="1175.1323"
     r="13.68536"
     id="circle124" />
  <circle
     cx="388.4314"
     cy="654.67041"
     r="13.68536"
     id="circle126"
     style="fill:#00bfa6" />
  <circle
     cx="501.25455"
     cy="858.76862"
     r="6.5353699"
     id="circle128"
     style="fill:#ff6584" />
  <line
     x1="533.27325"
     y1="967.24109"
     x2="533.27325"
     y2="892.82977"
     stroke-miterlimit="10"
     id="line130"
     style="fill:#3f3d56;stroke:#3f3d56;stroke-width:2;stroke-miterlimit:10" />
  <circle
     cx="533.27325"
     cy="892.82977"
     r="10.52282"
     id="circle132"
     style="fill:#3f3d56" />
  <path
     d="m 533.27326,938.69106 c 0,0 -1.50326,-32.33193 -32.32009,-28.57378"
     id="path134"
     inkscape:connector-curvature="0"
     style="fill:#3f3d56" />
  <circle
     cx="238.94304"
     cy="643.67999"
     r="13.68536"
     id="circle42-7"
     style="fill:#00bfa6" />
  <rect
     x="629.92047"
     y="1136.6823"
     width="36"
     height="36"
     id="rect88-4"
     style="fill:#ff6584" />
  <circle
     cx="164.96245"
     cy="474.99493"
     r="13.68536"
     id="circle42-7-3"
     style="fill:#00bfa6" />
  <path
     style="fill:#2f2e41;stroke:#2f2e41;stroke-width:3;stroke-linecap:butt;stroke-linejoin:miter;stroke-opacity:1;stroke-miterlimit:4;stroke-dasharray:none;fill-opacity:1"
     d="m 501.07334,436.50368 140.9054,71.48372"
     id="path4884"
     inkscape:connector-curvature="0" />
  <circle
     cx="501.46039"
     cy="429.733"
     r="68"
     id="circle116"
     style="fill:#ff6584" />
</svg>
