<?xml version="1.0" encoding="UTF-8" standalone="no"?>
<svg
   xmlns:dc="http://purl.org/dc/elements/1.1/"
   xmlns:cc="http://creativecommons.org/ns#"
   xmlns:rdf="http://www.w3.org/1999/02/22-rdf-syntax-ns#"
   xmlns:svg="http://www.w3.org/2000/svg"
   xmlns="http://www.w3.org/2000/svg"
   xmlns:sodipodi="http://sodipodi.sourceforge.net/DTD/sodipodi-0.dtd"
   xmlns:inkscape="http://www.inkscape.org/namespaces/inkscape"
   width="53"
   height="53"
   viewBox="0 0 53 53"
   version="1.1"
   id="svg14"
   sodipodi:docname="tab_calendar.svg"
   style="fill:none"
   inkscape:version="0.92.4 (5da689c313, 2019-01-14)">
  <metadata
     id="metadata20">
    <rdf:RDF>
      <cc:Work
         rdf:about="">
        <dc:format>image/svg+xml</dc:format>
        <dc:type
           rdf:resource="http://purl.org/dc/dcmitype/StillImage" />
        <dc:title></dc:title>
      </cc:Work>
    </rdf:RDF>
  </metadata>
  <defs
     id="defs18" />
  <sodipodi:namedview
     pagecolor="#ffffff"
     bordercolor="#666666"
     borderopacity="1"
     objecttolerance="10"
     gridtolerance="10"
     guidetolerance="10"
     inkscape:pageopacity="0"
     inkscape:pageshadow="2"
     inkscape:window-width="1920"
     inkscape:window-height="1017"
     id="namedview16"
     showgrid="false"
     inkscape:zoom="4.72"
     inkscape:cx="-1.1949153"
     inkscape:cy="25"
     inkscape:window-x="-8"
     inkscape:window-y="-8"
     inkscape:window-maximized="1"
     inkscape:current-layer="svg14" />
  <g
     id="g28"
     transform="translate(1.01715,-1.5)"
     style="fill:#ffffff">
    <path
       style="fill:#ffffff"
       inkscape:connector-curvature="0"
       id="path2"
       d="m 25.5365,33.5258 h -4.4528 c -0.8584,0 -1.6095,0.6974 -1.6095,1.6094 v 2.7361 c 0,0.8583 0.6975,1.6094 1.6095,1.6094 h 4.4528 c 0.8583,0 1.6094,-0.6974 1.6094,-1.6094 v -2.7361 c 0,-0.8584 -0.7511,-1.6094 -1.6094,-1.6094 z" />
    <path
       style="fill:#ffffff"
       inkscape:connector-curvature="0"
       id="path4"
       d="M 14.0558,33.5258 H 9.60297 c -0.85837,0 -1.60944,0.6974 -1.60944,1.6094 v 2.7361 c 0,0.8583 0.69743,1.6094 1.60944,1.6094 h 4.45283 c 0.8583,0 1.6094,-0.6974 1.6094,-1.6094 v -2.7361 c 0,-0.8584 -0.7511,-1.6094 -1.6094,-1.6094 z" />
    <path
       style="fill:#ffffff"
       inkscape:connector-curvature="0"
       id="path6"
       d="m 25.5365,23.4935 h -4.4528 c -0.8584,0 -1.6095,0.6975 -1.6095,1.6095 v 2.736 c 0,0.8584 0.6975,1.6095 1.6095,1.6095 h 4.4528 c 0.8583,0 1.6094,-0.6975 1.6094,-1.6095 v -2.736 c 0,-0.8584 -0.7511,-1.6095 -1.6094,-1.6095 z" />
    <path
       style="fill:#ffffff"
       inkscape:connector-curvature="0"
       id="path8"
       d="M 14.0558,23.4935 H 9.60297 c -0.85837,0 -1.60944,0.6975 -1.60944,1.6095 v 2.736 c 0,0.8584 0.69743,1.6095 1.60944,1.6095 h 4.45283 c 0.8583,0 1.6094,-0.6975 1.6094,-1.6095 v -2.736 c 0,-0.8584 -0.7511,-1.6095 -1.6094,-1.6095 z" />
    <path
       style="fill:#ffffff"
       inkscape:connector-curvature="0"
       id="path10"
       d="m 37.0172,23.4935 h -4.4528 c -0.8584,0 -1.6094,0.6975 -1.6094,1.6095 v 2.736 c 0,0.8584 0.6974,1.6095 1.6094,1.6095 h 4.4528 c 0.8584,0 1.6094,-0.6975 1.6094,-1.6095 v -2.736 c 0,-0.8584 -0.751,-1.6095 -1.6094,-1.6095 z" />
    <path
       style="fill:#ffffff"
       inkscape:connector-curvature="0"
       id="path12"
       d="M 46.6202,34.0086 V 12.7103 c 0,-1.39485 -0.5365,-2.62875 -1.3949,-3.59442 V 9.06223 H 45.1717 C 44.1524,7.93562 42.7039,7.2382 41.0944,7.2382 H 37.0708 V 4.82403 C 37.0708,3.804721 36.2661,3 35.2468,3 h -2.7361 c -1.0193,0 -1.824,0.804721 -1.824,1.82403 V 7.2382 H 15.8798 V 4.82403 C 15.8798,3.804721 15.0751,3 14.0558,3 H 11.3197 C 10.3004,3 9.49571,3.804721 9.49571,4.82403 V 7.2382 H 5.4721 c -1.60944,0 -3.05794,0.69742 -4.07725,1.82403 V 9.11588 C 0.536481,10.08155 0,11.31545 0,12.7103 v 29.2382 c 0,3.0043 2.46781,5.4721 5.4721,5.4721 H 31.1695 C 32.9399,50.7468 36.427,53 40.4506,53 c 5.794,0 10.5151,-4.721 10.5151,-10.515 0,-3.4871 -1.7168,-6.5987 -4.3455,-8.4764 z M 29.9356,42.485 c 0,0.4292 0.0537,0.8583 0.1073,1.2875 H 5.4721 c -1.01931,0 -1.82403,-0.8047 -1.82403,-1.824 V 19.6309 H 42.9185 V 32.2918 C 42.1137,32.0773 41.309,31.97 40.4506,31.97 c -5.7939,0 -10.515,4.721 -10.515,10.515 z m 14.8605,-1.073 -4.3455,4.6674 c -0.2682,0.2682 -0.6437,0.4292 -1.0193,0.4292 -0.3755,0 -0.751,-0.161 -1.0193,-0.4292 l -2.5751,-2.7897 c -0.5365,-0.5365 -0.4828,-1.3948 0.0537,-1.9313 0.5364,-0.5365 1.3948,-0.4829 1.9313,0.0536 l 1.6094,1.7168 3.3262,-3.5945 c 0.5365,-0.5364 1.3949,-0.5901 1.9313,-0.0536 0.5902,0.5365 0.6438,1.3948 0.1073,1.9313 z" />
  </g>
</svg>
