<?xml version="1.0" encoding="UTF-8" standalone="no"?>
<svg
   xmlns:dc="http://purl.org/dc/elements/1.1/"
   xmlns:cc="http://creativecommons.org/ns#"
   xmlns:rdf="http://www.w3.org/1999/02/22-rdf-syntax-ns#"
   xmlns:svg="http://www.w3.org/2000/svg"
   xmlns="http://www.w3.org/2000/svg"
   xmlns:sodipodi="http://sodipodi.sourceforge.net/DTD/sodipodi-0.dtd"
   xmlns:inkscape="http://www.inkscape.org/namespaces/inkscape"
   width="54"
   height="54"
   viewBox="0 0 54 54"
   version="1.1"
   id="svg12"
   sodipodi:docname="tab_cleaning.svg"
   style="fill:none"
   inkscape:version="0.92.4 (5da689c313, 2019-01-14)">
  <metadata
     id="metadata18">
    <rdf:RDF>
      <cc:Work
         rdf:about="">
        <dc:format>image/svg+xml</dc:format>
        <dc:type
           rdf:resource="http://purl.org/dc/dcmitype/StillImage" />
        <dc:title></dc:title>
      </cc:Work>
    </rdf:RDF>
  </metadata>
  <defs
     id="defs16" />
  <sodipodi:namedview
     pagecolor="#ffffff"
     bordercolor="#666666"
     borderopacity="1"
     objecttolerance="10"
     gridtolerance="10"
     guidetolerance="10"
     inkscape:pageopacity="0"
     inkscape:pageshadow="2"
     inkscape:window-width="1920"
     inkscape:window-height="1017"
     id="namedview14"
     showgrid="false"
     inkscape:zoom="4.72"
     inkscape:cx="-0.69491525"
     inkscape:cy="25"
     inkscape:window-x="-8"
     inkscape:window-y="-8"
     inkscape:window-maximized="1"
     inkscape:current-layer="svg12" />
  <g
     id="g25"
     transform="translate(1.20175,2)"
     style="fill:#ffffff">
    <path
       id="path2"
       d="M 11.9226,37.4457 11.8682,37.1739 C 11.7595,36.7391 11.3791,36.4131 10.9443,36.4131 H 5.67255 c -0.43478,0 -0.81521,0.326 -0.92391,0.7608 l -0.05435,0.2718 c -0.86956,3.5326 -2.3913,6.7934 -4.510866,9.7282 -0.1630435,0.2718 -0.2173914,0.5435 -0.1630436,0.8696 0.1086956,0.3261 0.3260866,0.5435 0.5978266,0.6522 0.543473,0.2174 1.141303,0.3804 1.739133,0.5434 1.57608,-2.1195 2.77174,-4.5108 3.5326,-7.0652 L 5.94429,41.9565 C 6.10734,41.4131 6.70516,41.087 7.24864,41.25 c 0.54348,0.1631 0.86957,0.7065 0.70652,1.3044 l -0.10869,0.163 c -0.70653,2.5 -1.84783,4.837 -3.31522,6.9565 1.25,0.2174 2.5,0.3261 3.75,0.3261 2.60865,0 5.21735,-0.4348 7.66305,-1.3043 0.2717,-0.1087 0.4891,-0.3261 0.5978,-0.6522 0.1087,-0.2717 0.0544,-0.5978 -0.163,-0.8696 -2.0652,-2.9348 -3.587,-6.1956 -4.4565,-9.7282 z"
       inkscape:connector-curvature="0"
       style="fill:#ffffff" />
    <path
       id="path4"
       d="m 5.61824,34.8913 h 5.32606 c 0.5435,0 0.9783,-0.4348 0.9783,-0.9783 v -1.3043 c 0,-0.5435 -0.4348,-0.9783 -0.9783,-0.9783 H 9.85738 V 12.0652 c 0,-0.8696 -0.70653,-1.5761 -1.57609,-1.5761 -0.86957,0 -1.57609,0.7065 -1.57609,1.5761 V 31.6304 H 5.61824 c -0.54347,0 -0.97826,0.4348 -0.97826,0.9783 v 1.3043 c 0.05435,0.5435 0.48913,0.9783 0.97826,0.9783 z"
       inkscape:connector-curvature="0"
       style="fill:#ffffff" />
    <path
       id="path6"
       d="m 38.6616,28.3696 c 0.4892,0 0.9783,-0.1631 1.4131,-0.4348 1.1413,-0.7609 1.413,-2.337 0.6522,-3.4239 L 34.2595,15 c -1.1413,-1.6848 -2.9892,-2.6631 -5,-2.6631 h -4.4566 c -1.6847,0 -3.3695,0.7066 -4.5108,2.0109 l -3.9674,4.3478 h -4.5652 v 4.9457 h 5.6521 c 0.7066,0 1.3587,-0.2717 1.8479,-0.8152 l 1.7391,-1.9022 v 26.4674 c 0,1.3587 1.0869,2.5 2.5,2.5 1.3587,0 2.5,-1.1413 2.5,-2.5 V 32.0652 h 2.3913 v 15.3804 c 0,1.3587 1.087,2.5 2.5,2.5 1.3587,0 2.5,-1.1413 2.5,-2.5 v -25 l 3.3152,4.837 c 0.3804,0.7065 1.1957,1.087 1.9565,1.087 z"
       inkscape:connector-curvature="0"
       style="fill:#ffffff" />
    <path
       id="path8"
       d="m 27.1943,10.9783 c 3.0315,0 5.4891,-2.45761 5.4891,-5.48917 C 32.6834,2.45757 30.2258,0 27.1943,0 c -3.0316,0 -5.4892,2.45757 -5.4892,5.48913 0,3.03156 2.4576,5.48917 5.4892,5.48917 z"
       inkscape:connector-curvature="0"
       style="fill:#ffffff" />
    <path
       id="path10"
       d="m 50.5639,39.0761 h -0.6522 v -0.0544 c 0,-3.3152 -2.7174,-6.0326 -6.0326,-6.0326 -3.3152,0 -6.0326,2.7174 -6.0326,6.0326 v 0.0544 h -0.6522 c -0.5435,0 -1.0326,0.4891 -1.0326,1.0326 0,0.5434 0.4348,1.0326 1.0326,1.0326 h 0.3261 l 0.7065,7.663 c 0.0543,0.5978 0.5978,1.087 1.1957,1.087 h 8.913 c 0.6522,0 1.1413,-0.4892 1.1956,-1.087 l 0.7066,-7.663 h 0.3261 c 0.5434,0 1.0326,-0.4892 1.0326,-1.0326 0,-0.5435 -0.4892,-1.0326 -1.0326,-1.0326 z M 39.9117,39.0217 c 0,-2.1739 1.7935,-3.9674 3.9674,-3.9674 2.1739,0 3.9674,1.7935 3.9674,3.9674 v 0.0544 z"
       inkscape:connector-curvature="0"
       style="fill:#ffffff" />
  </g>
</svg>
