<?xml version="1.0" encoding="UTF-8" standalone="no"?>
<svg
   xmlns:dc="http://purl.org/dc/elements/1.1/"
   xmlns:cc="http://creativecommons.org/ns#"
   xmlns:rdf="http://www.w3.org/1999/02/22-rdf-syntax-ns#"
   xmlns:svg="http://www.w3.org/2000/svg"
   xmlns="http://www.w3.org/2000/svg"
   xmlns:sodipodi="http://sodipodi.sourceforge.net/DTD/sodipodi-0.dtd"
   xmlns:inkscape="http://www.inkscape.org/namespaces/inkscape"
   width="62"
   height="62"
   viewBox="0 0 62 62"
   version="1.1"
   id="svg4"
   sodipodi:docname="tab_shopping-list.svg"
   style="fill:none"
   inkscape:version="0.92.4 (5da689c313, 2019-01-14)">
  <metadata
     id="metadata10">
    <rdf:RDF>
      <cc:Work
         rdf:about="">
        <dc:format>image/svg+xml</dc:format>
        <dc:type
           rdf:resource="http://purl.org/dc/dcmitype/StillImage" />
        <dc:title></dc:title>
      </cc:Work>
    </rdf:RDF>
  </metadata>
  <defs
     id="defs8" />
  <sodipodi:namedview
     pagecolor="#ffffff"
     bordercolor="#666666"
     borderopacity="1"
     objecttolerance="10"
     gridtolerance="10"
     guidetolerance="10"
     inkscape:pageopacity="0"
     inkscape:pageshadow="2"
     inkscape:window-width="1920"
     inkscape:window-height="1017"
     id="namedview6"
     showgrid="false"
     inkscape:zoom="4.72"
     inkscape:cx="2.8050847"
     inkscape:cy="25"
     inkscape:window-x="-8"
     inkscape:window-y="-8"
     inkscape:window-maximized="1"
     inkscape:current-layer="svg4" />
  <path
     d="m 59.780141,13.30061 c -0.3067,-0.42944 -0.7975,-0.67484 -1.3497,-0.67484 h -44.1104 l -1.2884,-5.33743 C 12.847641,6.490797 12.172741,6 11.375241,6 H 3.5838309 c -0.920244,0 -1.71779,0.736196 -1.71779,1.71779 0,0.9816 0.797546,1.71779 1.71779,1.71779 h 6.4417201 l 9.26379,38.34352 c 0.1841,0.7976 0.8589,1.2884 1.6565,1.2884 h 2.2699 c -0.9203,0.6748 -1.5951,1.7791 -1.5951,3.0675 0,2.1472 1.7178,3.865 3.865,3.865 2.1473,0 3.8651,-1.7178 3.8651,-3.865 0,-1.2884 -0.6749,-2.3313 -1.5951,-3.0675 h 15.5214 c -0.9202,0.6748 -1.595,1.7791 -1.595,3.0675 0,2.1472 1.7177,3.865 3.865,3.865 2.1472,0 3.865,-1.7178 3.865,-3.865 0,-1.2884 -0.6748,-2.3313 -1.5951,-3.0675 h 1.1043 c 0.9203,0 1.7178,-0.7362 1.7178,-1.7178 0,-0.9203 -0.7975,-1.7178 -1.7178,-1.7178 h -26.6258 l -0.9815,-3.9877 h 30.9202 c 0.7975,0 1.4724,-0.5522 1.6564,-1.2884 l 6.1964,-25.58279 c 0.1227,-0.55215 0,-1.1043 -0.3068,-1.4724 z m -28.4049,16.38039 -0.6135,-5.092 h 9.9387 l -0.6135,5.092 z m 8.2822,3.4356 -0.6135,5.092 h -6.6871 l -0.6135,-5.092 z m -22.454,-8.5276 h 10.1227 l 0.6135,5.092 h -9.5092 z m 13.1289,-3.4356 -0.6135,-5.092 h 11.9632 l -0.6135,5.092 z m -4.0491,-5.092 0.6135,5.092 h -10.5522 l -1.227,-5.092 z m -7.0552,17.0552 h 9.0797 l 0.6135,5.092 h -8.4662 z m 23.2515,5.092 0.6135,-5.092 h 9.0184 l -1.227,5.092 z m 10.4908,-8.5276 h -9.4479 l 0.6135,-5.092 h 10.0614 z m 2.0245,-8.5276 h -10.4908 l 0.6135,-5.092 h 11.1043 z"
     id="path2"
     inkscape:connector-curvature="0"
     style="fill:#ffffff" />
</svg>
