<?xml version="1.0" encoding="UTF-8" standalone="no"?>
<svg
   xmlns:dc="http://purl.org/dc/elements/1.1/"
   xmlns:cc="http://creativecommons.org/ns#"
   xmlns:rdf="http://www.w3.org/1999/02/22-rdf-syntax-ns#"
   xmlns:svg="http://www.w3.org/2000/svg"
   xmlns="http://www.w3.org/2000/svg"
   xmlns:sodipodi="http://sodipodi.sourceforge.net/DTD/sodipodi-0.dtd"
   xmlns:inkscape="http://www.inkscape.org/namespaces/inkscape"
   width="55"
   height="55"
   viewBox="0 0 55 55"
   version="1.1"
   id="svg6"
   sodipodi:docname="tab_wallet.svg"
   style="fill:none"
   inkscape:version="0.92.4 (5da689c313, 2019-01-14)">
  <metadata
     id="metadata12">
    <rdf:RDF>
      <cc:Work
         rdf:about="">
        <dc:format>image/svg+xml</dc:format>
        <dc:type
           rdf:resource="http://purl.org/dc/dcmitype/StillImage" />
        <dc:title></dc:title>
      </cc:Work>
    </rdf:RDF>
  </metadata>
  <defs
     id="defs10" />
  <sodipodi:namedview
     pagecolor="#ffffff"
     bordercolor="#666666"
     borderopacity="1"
     objecttolerance="10"
     gridtolerance="10"
     guidetolerance="10"
     inkscape:pageopacity="0"
     inkscape:pageshadow="2"
     inkscape:window-width="1920"
     inkscape:window-height="1017"
     id="namedview8"
     showgrid="false"
     inkscape:zoom="4.5384615"
     inkscape:cx="-7.7627119"
     inkscape:cy="26"
     inkscape:window-x="-8"
     inkscape:window-y="-8"
     inkscape:window-maximized="1"
     inkscape:current-layer="svg6" />
  <g
     id="g16"
     transform="translate(7.6883137,1.358151)"
     style="fill:#ffffff">
    <path
       id="path2"
       d="M 27.426,11.8502 C 29.6596,9.38789 32.8169,5.12309 30.3904,1.32594 30.2753,1.1462 30.1016,1.01333 29.8996,0.95066 29.6976,0.88799 29.4803,0.899528 29.2858,0.983249 26.4696,2.20774 24.7289,2.9417 21.9127,1.71728 L 20.1616,0.85106 C 20.0511,0.802986 19.932,0.778198 19.8117,0.778198 c -0.1202,0 -0.2393,0.024788 -0.3498,0.072862 l -1.7511,0.8662 C 14.8946,2.94168 13.1538,2.20772 10.3377,0.983232 10.1432,0.899511 9.92593,0.887973 9.72393,0.950643 9.52193,1.01331 9.34815,1.14618 9.23312,1.32592 6.80653,5.12307 9.96387,9.38788 12.1975,11.8502 Z"
       inkscape:connector-curvature="0"
       style="fill:#ffffff" />
    <path
       id="path4"
       d="M 38.7,32.4235 C 37.0045,24.0338 32.923,15.5805 27.2231,14.2618 H 12.4003 C 6.70039,15.5805 2.61884,24.0338 0.923359,32.4235 -1.31041,43.4766 -1.02204,51.5055 19.8117,51.5055 c 20.8337,0 21.1221,-8.0289 18.8883,-19.082 z M 28.3185,43.8822 c -1.5979,0.8388 -3.3586,1.3094 -5.1565,1.3782 -1.7978,0.0688 -3.5884,-0.2659 -5.2441,-0.9802 -1.6556,-0.7143 -3.1354,-1.7907 -4.3337,-3.1521 -1.1983,-1.3615 -2.0856,-2.9746 -2.5985,-4.7242 H 8.36977 c -0.31004,0 -0.60738,-0.1249 -0.82662,-0.3473 -0.21923,-0.2225 -0.34239,-0.5241 -0.34239,-0.8387 0,-0.3145 0.12316,-0.6162 0.34239,-0.8386 0.21924,-0.2224 0.51658,-0.3474 0.82662,-0.3474 H 10.5392 C 10.505,33.6523 10.486,33.2695 10.486,32.8836 c 0,-0.3859 0.019,-0.7687 0.0532,-1.1482 H 8.36977 C 8.21604,31.7357 8.06375,31.7053 7.92162,31.6458 7.77949,31.5864 7.65032,31.4991 7.5415,31.3889 7.43267,31.2788 7.34633,31.1479 7.28743,31.0038 7.22852,30.8598 7.19819,30.7053 7.19819,30.5494 c 0,-0.156 0.03033,-0.3105 0.08924,-0.4545 C 7.34633,29.9508 7.43267,29.82 7.5415,29.7098 7.65032,29.5996 7.77949,29.5123 7.92162,29.4529 8.06375,29.3934 8.21604,29.363 8.36977,29.3633 h 2.61583 c 0.5129,-1.7495 1.4002,-3.3626 2.5985,-4.7241 1.1984,-1.3615 2.6782,-2.4378 4.3338,-3.1522 1.6556,-0.7143 3.4463,-1.049 5.2441,-0.9802 1.7979,0.0687 3.5586,0.5393 5.1565,1.3781 0.1668,0.0875 0.315,0.2076 0.4361,0.3533 0.121,0.1457 0.2126,0.3142 0.2694,0.4958 0.0568,0.1816 0.0778,0.3728 0.0617,0.5627 -0.0161,0.1898 -0.0689,0.3746 -0.1555,0.5437 -0.0865,0.1692 -0.2051,0.3193 -0.3489,0.4419 -0.1438,0.1226 -0.31,0.2152 -0.4891,0.2726 -0.1791,0.0573 -0.3676,0.0783 -0.5547,0.0617 -0.1871,-0.0167 -0.3692,-0.0706 -0.5357,-0.1586 -1.1597,-0.6082 -2.4319,-0.9636 -3.735,-1.0435 -1.303,-0.08 -2.6081,0.1173 -3.8316,0.5792 -1.2235,0.4619 -2.3383,1.1782 -3.2728,2.1029 -0.9346,0.9247 -1.6683,2.0374 -2.1541,3.2667 h 7.6104 c 0.1537,-3e-4 0.306,0.0301 0.4481,0.0895 0.1421,0.0595 0.2713,0.1468 0.3801,0.257 0.1089,0.1101 0.1952,0.241 0.2541,0.3851 0.0589,0.144 0.0892,0.2985 0.0892,0.4544 0,0.156 -0.0303,0.3104 -0.0892,0.4545 -0.0589,0.1441 -0.1452,0.2749 -0.2541,0.3851 -0.1088,0.1102 -0.238,0.1975 -0.3801,0.2569 -0.1421,0.0595 -0.2944,0.0899 -0.4481,0.0895 h -8.2048 c -0.0935,0.7626 -0.0935,1.534 0,2.2966 h 8.2048 c 0.1535,0 0.3055,0.0306 0.4473,0.0902 0.1419,0.0596 0.2707,0.147 0.3793,0.2571 0.1085,0.1102 0.1946,0.2409 0.2534,0.3848 0.0587,0.1439 0.089,0.2981 0.089,0.4539 0,0.1557 -0.0303,0.31 -0.089,0.4538 -0.0588,0.1439 -0.1449,0.2747 -0.2534,0.3848 -0.1086,0.1102 -0.2374,0.1975 -0.3793,0.2571 -0.1418,0.0596 -0.2938,0.0903 -0.4473,0.0903 h -7.6103 c 0.4857,1.2293 1.2194,2.342 2.154,3.2667 0.9346,0.9247 2.0494,1.641 3.2728,2.1028 1.2235,0.4619 2.5286,0.6592 3.8317,0.5793 1.303,-0.08 2.5752,-0.4355 3.7349,-1.0436 0.1666,-0.0881 0.3486,-0.1419 0.5357,-0.1586 0.1871,-0.0166 0.3756,0.0044 0.5547,0.0617 0.1791,0.0574 0.3453,0.15 0.4891,0.2726 0.1438,0.1226 0.2624,0.2727 0.349,0.4419 0.0865,0.1691 0.1393,0.3538 0.1554,0.5437 0.0161,0.1899 -0.0048,0.3811 -0.0617,0.5627 -0.0568,0.1816 -0.1483,0.3501 -0.2694,0.4958 -0.1211,0.1457 -0.2692,0.2657 -0.4361,0.3533 z"
       inkscape:connector-curvature="0"
       style="fill:#ffffff" />
  </g>
</svg>
