<?xml version="1.0" encoding="UTF-8" standalone="no"?>
<svg
   xmlns:dc="http://purl.org/dc/elements/1.1/"
   xmlns:cc="http://creativecommons.org/ns#"
   xmlns:rdf="http://www.w3.org/1999/02/22-rdf-syntax-ns#"
   xmlns:svg="http://www.w3.org/2000/svg"
   xmlns="http://www.w3.org/2000/svg"
   xmlns:sodipodi="http://sodipodi.sourceforge.net/DTD/sodipodi-0.dtd"
   xmlns:inkscape="http://www.inkscape.org/namespaces/inkscape"
   width="75"
   height="75"
   viewBox="0 0 75 75"
   version="1.1"
   id="svg20"
   sodipodi:docname="task_bathroom.svg"
   style="fill:none"
   inkscape:version="0.92.4 (5da689c313, 2019-01-14)">
  <metadata
     id="metadata26">
    <rdf:RDF>
      <cc:Work
         rdf:about="">
        <dc:format>image/svg+xml</dc:format>
        <dc:type
           rdf:resource="http://purl.org/dc/dcmitype/StillImage" />
        <dc:title></dc:title>
      </cc:Work>
    </rdf:RDF>
  </metadata>
  <defs
     id="defs24" />
  <sodipodi:namedview
     pagecolor="#ffffff"
     bordercolor="#666666"
     borderopacity="1"
     objecttolerance="10"
     gridtolerance="10"
     guidetolerance="10"
     inkscape:pageopacity="0"
     inkscape:pageshadow="2"
     inkscape:window-width="1920"
     inkscape:window-height="1017"
     id="namedview22"
     showgrid="false"
     inkscape:zoom="3.3714286"
     inkscape:cx="-0.87288136"
     inkscape:cy="35"
     inkscape:window-x="-8"
     inkscape:window-y="-8"
     inkscape:window-maximized="1"
     inkscape:current-layer="svg20" />
  <g
     id="g37"
     transform="translate(1.3855,2.4999803)"
     style="fill:#ffffff">
    <path
       id="path2"
       d="m 20.3002,16.9684 0.4562,0.8363 c 0.152,0.3041 0.6082,0.4562 0.9123,0.2281 l 13.4574,-7.6791 c 0.3042,-0.1521 0.4562,-0.60824 0.2281,-0.91236 L 34.898,8.605 C 34.746,8.30088 34.2898,8.14882 33.9857,8.37691 L 20.6043,16.056 c -0.3801,0.1521 -0.4562,0.5322 -0.3041,0.9124 z"
       inkscape:connector-curvature="0"
       style="fill:#ffffff" />
    <path
       id="path4"
       d="m 32.541,18.8691 -1.2925,-2.2809 c -0.3041,-0.6083 -1.0644,-0.7603 -1.6727,-0.4562 -0.6082,0.3041 -0.7603,1.0644 -0.4562,1.6727 l 1.2926,2.2809 c 0.3041,0.6082 1.0644,0.7603 1.6726,0.4562 0.6083,-0.3042 0.7603,-1.0645 0.4562,-1.6727 z"
       inkscape:connector-curvature="0"
       style="fill:#ffffff" />
    <path
       id="path6"
       d="m 33.3013,22.7466 c -0.6082,0.3042 -0.7603,1.0645 -0.4562,1.6727 l 1.2926,2.2809 c 0.3041,0.6083 1.0644,0.7603 1.6726,0.4562 0.6083,-0.3041 0.7603,-1.0644 0.4562,-1.6727 L 34.974,23.2028 c -0.3041,-0.5322 -1.0644,-0.7603 -1.6727,-0.4562 z"
       inkscape:connector-curvature="0"
       style="fill:#ffffff" />
    <path
       id="path8"
       d="m 24.9381,18.717 c -0.6083,0.3041 -0.7603,1.0645 -0.4562,1.6727 l 1.2925,2.2809 c 0.3041,0.6083 1.0644,0.7603 1.6727,0.4562 0.6082,-0.3041 0.7603,-1.0644 0.4562,-1.6727 L 26.6107,19.1732 C 26.3066,18.641 25.5463,18.4129 24.9381,18.717 Z"
       inkscape:connector-curvature="0"
       style="fill:#ffffff" />
    <path
       id="path10"
       d="m 28.7395,25.4077 c -0.6082,0.3041 -0.7603,1.0644 -0.4561,1.6727 l 1.2925,2.2809 c 0.3041,0.6082 1.0644,0.7603 1.6727,0.4562 0.6082,-0.3041 0.7603,-1.0644 0.4561,-1.6727 l -1.2925,-2.2809 c -0.3041,-0.6082 -1.0644,-0.8363 -1.6727,-0.4562 z"
       inkscape:connector-curvature="0"
       style="fill:#ffffff" />
    <path
       id="path12"
       d="m 34.1377,13.4709 c -0.6082,0.3042 -0.7603,1.0645 -0.4562,1.6727 l 1.2926,2.2809 c 0.3041,0.6083 1.0644,0.7603 1.6726,0.4562 0.6083,-0.3041 0.7603,-1.0644 0.4562,-1.6727 L 35.8104,13.9271 C 35.5063,13.3949 34.746,13.1668 34.1377,13.4709 Z"
       inkscape:connector-curvature="0"
       style="fill:#ffffff" />
    <path
       id="path14"
       d="m 38.6996,24.1152 c 0.3041,0.6083 1.0644,0.7603 1.6727,0.4562 0.6082,-0.3041 0.7603,-1.0644 0.4561,-1.6727 l -1.2925,-2.2809 c -0.3041,-0.6082 -1.0644,-0.7603 -1.6727,-0.4562 -0.6082,0.3042 -0.7603,1.0645 -0.4561,1.6727 z"
       inkscape:connector-curvature="0"
       style="fill:#ffffff" />
    <path
       id="path16"
       d="M 70.5563,36.4321 H 12.393 V 8.83307 c 0,-2.7371 2.0528,-5.17008 4.8659,-5.39817 1.4446,-0.07603 2.8132,0.38015 3.8016,1.29252 L 20.8324,4.87948 C 19.92,5.41169 19.5398,6.62818 20.0721,7.54055 l 0.3801,0.68427 c -1.2925,1.74871 -1.6727,3.87758 -0.6082,6.08248 0.152,0.2281 0.4561,0.3801 0.6842,0.2281 L 32.9212,7.46452 C 33.1493,7.31246 33.2253,7.00833 33.0733,6.78024 31.7047,4.72742 29.7279,3.96711 27.5231,4.19521 L 27.1429,3.51093 C 26.6107,2.59857 25.3942,2.21841 24.4818,2.75063 L 24.2537,2.90269 C 22.429,1.00192 19.92,-0.138534 17.1069,0.0135275 12.469,0.241619 8.89557,4.27124 8.89557,8.9091 v 27.523 H 1.67267 C 0.760305,36.4321 0,37.1924 0,38.1048 v 3.7255 c 0,0.9124 0.760305,1.6727 1.67267,1.6727 H 70.5563 c 0.9124,0 1.6727,-0.7603 1.6727,-1.6727 v -3.7255 c 0,-0.9124 -0.7603,-1.6727 -1.6727,-1.6727 z"
       inkscape:connector-curvature="0"
       style="fill:#ffffff" />
    <path
       id="path18"
       d="M 69.1878,45.2517 H 3.72551 c -0.30412,0 -0.60825,0.3041 -0.60825,0.6083 v 4.4097 c 0,5.7783 3.42138,10.7964 8.36334,13.0012 l -1.3685,4.1057 c -0.38018,0.9884 0.2281,2.1288 1.2165,2.509 0.9884,0.3802 2.1288,-0.2281 2.509,-1.2165 l 1.4445,-4.1817 c 0.6843,0.0761 1.4446,0.1521 2.2049,0.1521 h 38.0153 c 0.7603,0 1.4446,-0.076 2.2049,-0.1521 l 1.4446,4.1817 c 0.3801,0.9884 1.4445,1.5967 2.509,1.2165 0.9884,-0.3802 1.5966,-1.4446 1.2165,-2.509 L 61.5087,63.2709 C 66.4507,60.99 69.8721,56.048 69.8721,50.2697 V 45.86 C 69.796,45.5558 69.4919,45.2517 69.1878,45.2517 Z"
       inkscape:connector-curvature="0"
       style="fill:#ffffff" />
  </g>
</svg>
