<?xml version="1.0" encoding="UTF-8" standalone="no"?>
<svg
   xmlns:dc="http://purl.org/dc/elements/1.1/"
   xmlns:cc="http://creativecommons.org/ns#"
   xmlns:rdf="http://www.w3.org/1999/02/22-rdf-syntax-ns#"
   xmlns:svg="http://www.w3.org/2000/svg"
   xmlns="http://www.w3.org/2000/svg"
   xmlns:sodipodi="http://sodipodi.sourceforge.net/DTD/sodipodi-0.dtd"
   xmlns:inkscape="http://www.inkscape.org/namespaces/inkscape"
   width="75"
   height="75"
   viewBox="0 0 75 75"
   version="1.1"
   id="svg6"
   sodipodi:docname="task_kitchen.svg"
   style="fill:none"
   inkscape:version="0.92.4 (5da689c313, 2019-01-14)">
  <metadata
     id="metadata12">
    <rdf:RDF>
      <cc:Work
         rdf:about="">
        <dc:format>image/svg+xml</dc:format>
        <dc:type
           rdf:resource="http://purl.org/dc/dcmitype/StillImage" />
        <dc:title></dc:title>
      </cc:Work>
    </rdf:RDF>
  </metadata>
  <defs
     id="defs10" />
  <sodipodi:namedview
     pagecolor="#ffffff"
     bordercolor="#666666"
     borderopacity="1"
     objecttolerance="10"
     gridtolerance="10"
     guidetolerance="10"
     inkscape:pageopacity="0"
     inkscape:pageshadow="2"
     inkscape:window-width="1920"
     inkscape:window-height="1017"
     id="namedview8"
     showgrid="false"
     inkscape:zoom="3.3714286"
     inkscape:cx="-19.872881"
     inkscape:cy="35"
     inkscape:window-x="-8"
     inkscape:window-y="-8"
     inkscape:window-maximized="1"
     inkscape:current-layer="svg6" />
  <g
     id="g16"
     transform="translate(20.448957,2.5)"
     style="fill:#ffffff">
    <path
       id="path2"
       d="M 34.0949,64.8453 31.0757,21.5455 29.9711,1.88382 c -0.0736,-0.95731 -0.81,-1.620026 -1.7673,-1.620026 -2.651,0 -4.9338,1.914586 -5.302,4.565586 L 19.6616,25.9638 c -0.5155,3.3874 2.1356,6.4803 5.5966,6.4803 h 1.1782 L 24.1536,64.9189 C 23.9327,67.6435 26.1419,70 28.8665,70 h 0.5155 c 2.7246,-0.0736 4.8602,-2.3564 4.7129,-5.1547 z"
       inkscape:connector-curvature="0"
       style="fill:#ffffff" />
    <path
       id="path4"
       d="M 14.1387,17.4217 13.7705,1.44198 c 0,-0.662755 -0.4419,-1.251886 -1.1046,-1.3991646 -0.8837,-0.1472784 -1.6937,0.5155096 -1.6937,1.3255446 0,0 -0.2946,11.78224 -0.3682,15.16964 0,0.5155 -0.4418,0.8837 -0.88367,0.8837 -0.51548,0 -0.88364,-0.3682 -0.88364,-0.8837 C 8.76305,13.1506 8.4685,1.36836 8.4685,1.36836 8.4685,0.484686 7.65843,-0.178102 6.77476,0.0428154 6.11201,0.190094 5.67018,0.779225 5.67018,1.44198 L 5.30198,16.538 c 0,0.5155 -0.4418,0.8837 -0.88363,0.8837 -0.51548,0 -0.88368,-0.3682 -0.88368,-0.8837 C 3.46103,13.1506 3.16647,1.36836 3.16647,1.36836 3.16647,0.484686 2.35645,-0.178102 1.47278,0.0428154 0.81003,0.190094 0.368196,0.779225 0.368196,1.44198 L 0,17.4217 v 2.0619 c 0,2.1355 0.736382,4.1974 2.06189,5.4493 l 2.72465,2.651 -2.65103,37.335 C 1.91459,67.6435 4.12378,70 6.84843,70 h 0.51548 c 2.72469,0 4.93379,-2.2829 4.71289,-5.0811 l -2.651,-37.335 2.7247,-2.651 c 1.2518,-1.2519 2.0618,-3.2402 2.0618,-5.4493 z"
       inkscape:connector-curvature="0"
       style="fill:#ffffff" />
  </g>
</svg>
