<?xml version="1.0" encoding="UTF-8" standalone="no"?>
<svg
   xmlns:dc="http://purl.org/dc/elements/1.1/"
   xmlns:cc="http://creativecommons.org/ns#"
   xmlns:rdf="http://www.w3.org/1999/02/22-rdf-syntax-ns#"
   xmlns:svg="http://www.w3.org/2000/svg"
   xmlns="http://www.w3.org/2000/svg"
   xmlns:sodipodi="http://sodipodi.sourceforge.net/DTD/sodipodi-0.dtd"
   xmlns:inkscape="http://www.inkscape.org/namespaces/inkscape"
   width="87"
   height="87"
   viewBox="0 0 87 87"
   version="1.1"
   id="svg6"
   sodipodi:docname="task_living-room.svg"
   style="fill:none"
   inkscape:version="0.92.4 (5da689c313, 2019-01-14)">
  <metadata
     id="metadata12">
    <rdf:RDF>
      <cc:Work
         rdf:about="">
        <dc:format>image/svg+xml</dc:format>
        <dc:type
           rdf:resource="http://purl.org/dc/dcmitype/StillImage" />
        <dc:title></dc:title>
      </cc:Work>
    </rdf:RDF>
  </metadata>
  <defs
     id="defs10" />
  <sodipodi:namedview
     pagecolor="#ffffff"
     bordercolor="#666666"
     borderopacity="1"
     objecttolerance="10"
     gridtolerance="10"
     guidetolerance="10"
     inkscape:pageopacity="0"
     inkscape:pageshadow="2"
     inkscape:window-width="1920"
     inkscape:window-height="1017"
     id="namedview8"
     showgrid="false"
     inkscape:zoom="3.3764706"
     inkscape:cx="5.1829268"
     inkscape:cy="26.5"
     inkscape:window-x="-8"
     inkscape:window-y="-8"
     inkscape:window-maximized="1"
     inkscape:current-layer="svg6" />
  <g
     id="g16"
     transform="translate(1,17.0605)"
     style="fill:#ffffff">
    <path
       id="path2"
       d="m 16.6421,24.0684 v 1.7 h 51.7158 v -1.521 c 0,-5.279 4.0263,-9.7527 9.2157,-10.0211 0.179,0 0.4474,0 0.6264,0 C 77.7526,6.35263 71.221,0 63.1684,0 H 21.8315 C 13.7789,0 7.24733,6.26316 6.79996,14.2263 c 5.45794,0 9.84214,4.3842 9.84214,9.8421 z"
       inkscape:connector-curvature="0"
       style="fill:#ffffff" />
    <path
       id="path4"
       d="M 77.7526,17.2684 C 74.1737,17.5369 71.4,20.6684 71.4,24.3369 V 28.9 H 13.6 v -4.7421 c 0,-3.9368 -3.3105,-7.0684 -7.24737,-6.8 C 2.77368,17.6263 0,20.7579 0,24.4263 v 17.6263 c 0,2.3264 1.87895,4.2948 4.29474,4.2948 H 6.8 v 2.2368 c 0,2.3263 1.87895,4.2948 4.2947,4.2948 h 4.1158 c 2.3263,0 4.2948,-1.879 4.2948,-4.2948 v -2.2368 h 45.9894 v 2.2368 c 0,2.3263 1.879,4.2948 4.2948,4.2948 h 4.1158 C 76.2316,52.879 78.2,51 78.2,48.5842 v -2.2368 h 2.5053 C 83.0316,46.3474 85,44.4684 85,42.0526 V 24.1579 C 85,20.1316 81.6895,17 77.7526,17.2684 Z"
       inkscape:connector-curvature="0"
       style="fill:#ffffff" />
  </g>
</svg>
