<?xml version="1.0" encoding="UTF-8" standalone="no"?>
<svg xmlns:dc="http://purl.org/dc/elements/1.1/" xmlns:cc="http://creativecommons.org/ns#"
    xmlns:rdf="http://www.w3.org/1999/02/22-rdf-syntax-ns#" xmlns:svg="http://www.w3.org/2000/svg"
    xmlns="http://www.w3.org/2000/svg"
    xmlns:sodipodi="http://sodipodi.sourceforge.net/DTD/sodipodi-0.dtd"
    xmlns:inkscape="http://www.inkscape.org/namespaces/inkscape" width="320.64001"
    height="70.656006" viewBox="54.880627 13.98938 320.64002 70.656006"
    preserveAspectRatio="xMidYMid" version="1.1" id="svg47" sodipodi:docname="Together.svg"
    inkscape:version="0.92.4 (5da689c313, 2019-01-14)">
  <metadata id="metadata51">
    <rdf:RDF>
      <cc:Work rdf:about="">
        <dc:format>image/svg+xml</dc:format>
        <dc:type rdf:resource="http://purl.org/dc/dcmitype/StillImage" />
        <dc:title></dc:title>
      </cc:Work>
    </rdf:RDF>
  </metadata>
  <sodipodi:namedview pagecolor="#ffffff" bordercolor="#666666" borderopacity="1"
      objecttolerance="10" gridtolerance="10" guidetolerance="10" inkscape:pageopacity="0"
      inkscape:pageshadow="2" inkscape:window-width="1920" inkscape:window-height="1017"
      id="namedview49" showgrid="false" fit-margin-top="0" fit-margin-left="0" fit-margin-right="0"
      fit-margin-bottom="0" inkscape:zoom="2.0801589" inkscape:cx="117.45416"
      inkscape:cy="44.565084" inkscape:window-x="-8" inkscape:window-y="-8"
      inkscape:window-maximized="1" inkscape:current-layer="svg47" />
  <defs id="defs37">
    <filter id="editing-extrude-glow">
      <feFlood flood-color="#ffffff" result="flood-1" id="feFlood2" />
      <feMorphology operator="erode" radius="1" in="SourceAlpha" result="erode"
          id="feMorphology4" />
      <feComposite operator="in" in="flood-1" in2="erode" result="comp1" id="feComposite6" />
      <feConvolveMatrix order="3,3" divisor="1" in="comp1" result="convolve"
          kernelMatrix="0 0 0 1 1 1 0 0 0" id="feConvolveMatrix8" />
      <feOffset dx="-3" dy="0" in="convolve" result="extrude" id="feOffset10" />
      <feComposite operator="in" in="flood-1" in2="extrude" result="comp-extrude"
          id="feComposite12" />
      <feFlood flood-color="#000000" result="flood-2" id="feFlood14" />
      <feComposite operator="in" in="flood-2" in2="SourceAlpha" result="comp2" id="feComposite16" />
      <feMorphology operator="dilate" radius="1" in="comp2" result="dilate" id="feMorphology18" />
      <feOffset dx="-4.5" dy="0" in="dilate" result="offset" id="feOffset20" />
      <feGaussianBlur in="offset" stdDeviation="5.8" result="blur" id="feGaussianBlur22" />
      <feComponentTransfer in="blur" result="shadow" id="feComponentTransfer26">
        <feFuncA type="linear" slope="0.8" intercept="-0.2" id="feFuncA24" />
      </feComponentTransfer>
      <feMerge id="feMerge34">
        <feMergeNode in="shadow" id="feMergeNode28" />
        <feMergeNode in="comp-extrude" id="feMergeNode30" />
        <feMergeNode in="SourceGraphic" id="feMergeNode32" />
      </feMerge>
    </filter>
  </defs>
  <g id="g43" style="filter:url(#editing-extrude-glow)"
      transform="translate(-35.338428,-38.474808)">
    <g transform="translate(112.90906,104.43219)" id="g41">
      <path
          d="m 6.21,-31.17 v 0 0 q -2.18,-1.66 -2.18,-5.21 v 0 0 q 0,-3.56 2.34,-5.41 v 0 0 q 2.33,-1.86 6.37,-1.86 v 0 0 q 2.56,0 8.64,0.9 v 0 l 4.35,0.64 v 0 q 2.17,0.25 4.45,0.25 v 0 0 q 2.27,0 3.8,-0.96 v 0 0 q 2.31,2.05 2.31,5 v 0 0 q 0,2.94 -2.63,5.05 v 0 0 q -2.68,2.24 -6.14,2.24 v 0 0 q -1.66,0 -4.35,-0.45 v 0 0 q -3.14,9.86 -3.14,16.71 v 0 0 q 0,6.85 3.46,10.43 v 0 0 q -1.6,2.88 -3.97,4 v 0 0 Q 17.15,1.28 13.6,1.28 v 0 0 q -3.55,0 -5.76,-1.95 v 0 0 Q 5.63,-2.62 5.63,-6.66 v 0 0 q 0,-4.67 2.56,-12.35 v 0 0 q 2.56,-7.61 6.4,-13.44 v 0 0 q -1.85,-0.19 -3.77,-0.19 v 0 0 q -3.97,0 -4.61,1.47 z M 45.25,1.28 v 0 0 q -14.08,0 -14.08,-13.25 v 0 0 q 0,-9.41 5.18,-15.49 v 0 0 q 5.51,-6.46 15.04,-6.46 v 0 0 q 6.91,0 10.43,3.2 v 0 0 q 3.52,3.2 3.52,9.92 v 0 0 q 0,10.24 -5.5,16.19 v 0 0 Q 54.46,1.28 45.25,1.28 Z m 1.66,-27.84 v 0 0 q -0.77,1.73 -1.37,4.32 v 0 0 q -0.61,2.59 -1.38,6.69 v 0 0 q -0.77,4.09 -0.77,9.15 v 0 0 q 0,1.66 0.55,2.75 v 0 0 q 0.54,1.09 2.01,1.09 v 0 0 q 1.47,0 2.4,-0.7 v 0 0 q 0.93,-0.71 1.63,-2.37 v 0 0 q 1.28,-2.95 2.31,-8.42 v 0 0 q 1.02,-5.47 1.12,-7.84 v 0 0 q 0.09,-2.37 0.09,-4.13 v 0 0 q 0,-1.76 -0.51,-2.91 v 0 0 q -0.51,-1.15 -1.95,-1.15 v 0 0 q -1.44,0 -2.4,0.9 v 0 0 q -0.96,0.89 -1.73,2.62 z m 26.75,-0.19 v 0 0 q 2.18,-3.07 5.48,-5.12 v 0 0 q 3.29,-2.05 7.32,-2.05 v 0 0 q 4.04,0 5.96,1.28 v 0 l 12.54,-1.28 -4.35,24.58 v 0 Q 98.37,3.2 93.63,8.13 v 0 0 Q 89.09,12.8 80.26,12.8 v 0 0 q -6.72,0 -10.56,-2.11 v 0 0 Q 65.86,8.58 65.86,5.06 v 0 0 q 0,-2.63 1.98,-4.13 v 0 0 q 1.98,-1.51 5.06,-1.51 v 0 0 q 2.68,0 4.73,1.22 v 0 0 q 1.22,0.64 1.79,1.54 v 0 0 q -1.47,1.28 -1.47,3.39 v 0 0 q 0,2.75 2.56,2.75 v 0 0 q 4.29,0 6.72,-10.11 v 0 0 q 0.71,-2.75 1.28,-5.51 v 0 0 q -2.88,3.52 -9.41,3.52 v 0 0 q -4.54,0 -7.16,-2.17 v 0 0 q -2.63,-2.18 -2.63,-7.3 v 0 0 q 0,-3.2 1.09,-6.81 v 0 0 q 1.09,-3.62 3.26,-6.69 z m 8.32,13.69 v 0 0 q 0,4.36 2.24,4.36 v 0 0 q 1.54,0 3.01,-1.67 v 0 0 q 1.15,-1.34 1.6,-3.33 v 0 l 3.27,-16.44 v 0 q -0.32,-0.07 -0.64,-0.2 v 0 0 q -0.64,-0.25 -1.48,-0.25 v 0 0 q -3.9,0 -6.2,6.4 v 0 0 q -1.8,4.99 -1.8,11.13 z m 51.4,2.24 v 0 0 q 1.6,1.09 1.6,3.49 v 0 0 q 0,2.4 -1.22,3.94 v 0 0 q -1.22,1.53 -3.2,2.56 v 0 0 q -4.1,2.11 -8.51,2.11 v 0 0 q -4.42,0 -7.01,-0.96 v 0 0 q -2.59,-0.96 -4.32,-2.75 v 0 0 q -3.39,-3.39 -3.39,-9.6 v 0 0 q 0,-9.67 5.25,-15.55 v 0 0 q 5.63,-6.34 15.42,-6.34 v 0 0 q 6.08,0 9.09,2.56 v 0 0 q 2.24,1.92 2.24,5.06 v 0 0 q 0,11.26 -19.46,11.26 v 0 0 q -0.25,1.66 -0.25,3.07 v 0 0 q 0,2.95 1.31,4.07 v 0 0 q 1.31,1.12 3.74,1.12 v 0 0 q 2.43,0 5.03,-1.12 v 0 0 q 2.59,-1.12 3.68,-2.92 z m -13.06,-6.97 v 0 0 q 4.54,0 7.17,-2.82 v 0 0 q 2.62,-2.69 2.62,-6.97 v 0 0 q 0,-1.48 -0.54,-2.28 v 0 0 q -0.55,-0.8 -1.63,-0.8 v 0 0 q -1.09,0 -2.02,0.42 v 0 0 q -0.93,0.42 -1.89,1.82 v 0 0 q -2.37,3.2 -3.71,10.63 z m 22.21,11.39 v 0 0 q 0,-1.73 0.89,-6.08 v 0 l 3.4,-17.28 h -3.78 l 0.26,-1.92 v 0 q 7.68,-2.3 15.1,-7.94 v 0 h 3.07 l -1.53,6.98 h 4.99 l -0.58,2.88 h -4.93 l -3.26,17.28 v 0 q -0.83,3.97 -0.83,5.31 v 0 0 q 0,3.07 2.69,3.71 v 0 0 q -0.64,2.18 -2.95,3.46 v 0 0 q -2.3,1.28 -5.57,1.28 v 0 0 q -3.26,0 -5.12,-2.05 v 0 0 q -1.85,-2.05 -1.85,-5.63 z m 54.27,-0.7 v 0 0 q 0,2.81 2.88,3.64 v 0 0 q -0.7,2.37 -3.46,3.65 v 0 0 q -2.3,1.09 -4.83,1.09 v 0 0 q -2.53,0 -3.84,-0.67 v 0 0 q -1.31,-0.67 -2.01,-1.76 v 0 0 q -1.16,-1.67 -1.16,-4.8 v 0 0 q 0,-1.86 1.03,-6.98 v 0 l 0.89,-4.86 v 0 q 1.09,-5.57 1.09,-7.62 v 0 0 q 0,-3.58 -1.98,-3.58 v 0 0 q -2.5,0 -4.1,3.65 v 0 0 q -0.64,1.4 -1.09,3.52 v 0 L 175.87,0 l -12.86,1.28 9.02,-46.08 12.87,-1.28 -0.52,2.56 v 0 q -1.79,9.86 -3.32,13.18 v 0 0 q 3.58,-3.58 10.17,-3.58 v 0 0 q 6.98,0 8.26,4.61 v 0 0 q 0.45,1.47 0.45,2.75 v 0 0 q 0,1.28 -0.1,2.27 v 0 0 q -0.1,0.99 -0.42,2.79 v 0 l -0.83,4.6 -1.47,7.24 v 0 q -0.32,1.47 -0.32,2.56 z m 33.98,-3.72 v 0 0 q 1.6,1.09 1.6,3.49 v 0 0 q 0,2.4 -1.21,3.94 v 0 0 q -1.22,1.53 -3.2,2.56 v 0 0 q -4.1,2.11 -8.51,2.11 v 0 0 q -4.42,0 -7.01,-0.96 v 0 0 q -2.59,-0.96 -4.32,-2.75 v 0 0 q -3.39,-3.39 -3.39,-9.6 v 0 0 q 0,-9.67 5.24,-15.55 v 0 0 q 5.64,-6.34 15.43,-6.34 v 0 0 q 6.08,0 9.09,2.56 v 0 0 q 2.24,1.92 2.24,5.06 v 0 0 q 0,11.26 -19.46,11.26 v 0 0 q -0.26,1.66 -0.26,3.07 v 0 0 q 0,2.95 1.32,4.07 v 0 0 q 1.31,1.12 3.74,1.12 v 0 0 q 2.43,0 5.02,-1.12 v 0 0 q 2.6,-1.12 3.68,-2.92 z m -13.05,-6.97 v 0 0 q 4.54,0 7.17,-2.82 v 0 0 q 2.62,-2.69 2.62,-6.97 v 0 0 q 0,-1.48 -0.54,-2.28 v 0 0 q -0.55,-0.8 -1.64,-0.8 v 0 0 q -1.08,0 -2.01,0.42 v 0 0 q -0.93,0.42 -1.89,1.82 v 0 0 q -2.37,3.2 -3.71,10.63 z m 41.21,-0.19 v 0 0 q 2.31,-4.1 2.31,-8.26 v 0 0 q 0,-2.75 -1.99,-2.75 v 0 0 q -1.53,0 -3.13,2.62 v 0 0 q -1.67,2.63 -2.18,6.02 v 0 L 250.62,0 l -13.24,1.28 6.52,-33.92 10.56,-1.28 -1.15,6.46 v 0 q 3.14,-6.46 10.18,-6.46 v 0 0 q 3.71,0 5.73,1.92 v 0 0 q 2.01,1.92 2.01,5.86 v 0 0 q 0,3.93 -2.59,6.43 v 0 0 q -2.59,2.49 -7.01,2.49 v 0 0 q -1.92,0 -2.69,-0.76 z"
          id="path39" inkscape:connector-curvature="0" style="fill:#009688" />
    </g>
  </g>
  <style id="style45">text {
    font-size: 64px;
    font-family: Arial Black;
    dominant-baseline: central;
    text-anchor: middle;
    }
  </style>
</svg>
